<svg width="158" height="31" viewBox="0 0 158 31" fill="none" xmlns="http://www.w3.org/2000/svg">
<path d="M39.5878 13.8439L35.0853 18.3464L20.9241 4.18521L17.4564 0.717535C17.4655 0.717535 17.4746 0.717537 17.4746 0.708459C18.4368 0.345352 19.4626 0.118408 20.5338 0.0457866C20.5519 0.0457866 20.5701 0.0457866 20.5882 0.0457866C20.8242 0.0276313 21.0603 0.0185547 21.2963 0.0185547C21.6957 0.0185547 22.0951 0.0457866 22.4764 0.091175C24.6641 0.327195 26.6612 1.21681 28.2679 2.56031C28.3406 2.61477 28.4132 2.67832 28.4767 2.74186L28.513 2.76909L28.5857 2.84171L39.5878 13.8439Z" fill="url(#paint0_linear_4239_74065)"/>
<path d="M28.6946 2.92302C28.6583 2.89578 28.6311 2.86855 28.5948 2.84132C28.5312 2.78685 28.4677 2.72331 28.3951 2.67792C28.268 2.57806 28.1318 2.48729 27.9956 2.40559C27.8141 2.2785 27.6144 2.17864 27.4056 2.08787C27.333 2.06063 27.2694 2.02432 27.1968 1.99709C27.1333 1.96986 27.0606 1.94263 26.988 1.92447C26.9245 1.89724 26.8519 1.87908 26.7883 1.86093C26.7248 1.84277 26.6612 1.82461 26.5886 1.80646C26.5795 1.80646 26.5704 1.80646 26.5614 1.79738C26.5523 1.79738 26.5523 1.79738 26.5432 1.7883C26.4797 1.77015 26.4161 1.76107 26.3435 1.74292C26.2709 1.73384 26.1983 1.71568 26.1256 1.70661C26.053 1.69753 25.9895 1.68845 25.9168 1.67937C25.7625 1.66122 25.5991 1.65214 25.4357 1.65214C24.5189 1.65214 23.6656 1.90632 22.9212 2.34204C22.7487 2.4419 22.5853 2.55991 22.431 2.67792C22.2495 2.82316 22.077 2.97748 21.9136 3.14088C21.85 3.2135 21.496 3.58569 20.9514 4.15758C20.9514 4.15758 20.9423 4.16666 20.9332 4.17573C18.1464 7.14414 10.3849 15.4321 10.3849 15.4321L9.77673 14.8148L8.07012 13.1082L5.89148 10.9205L13.7164 3.09549C14.7785 2.05156 16.0585 1.23457 17.4746 0.698983C17.4837 0.698983 17.4928 0.698982 17.4928 0.689905C18.455 0.326797 19.4808 0.0998562 20.5519 0.0272347C20.5701 0.0272347 20.5882 0.0272347 20.6064 0.0272347C20.8424 0.00907935 21.0784 0 21.3145 0C21.7139 0 22.1133 0.0272347 22.4946 0.0726231C24.6823 0.308643 26.6794 1.19825 28.2861 2.54175C28.3587 2.59622 28.4314 2.65976 28.4949 2.72331L28.5312 2.75054C28.5766 2.81408 28.6402 2.86855 28.6946 2.92302Z" fill="url(#paint1_linear_4239_74065)"/>
<path d="M0 16.8573L4.51161 12.3457L18.6728 26.5069L22.1405 29.9746C22.1314 29.9746 22.1223 29.9746 22.1223 29.9836C21.1601 30.3468 20.1343 30.5737 19.0631 30.6463C19.045 30.6463 19.0268 30.6463 19.0087 30.6463C18.7726 30.6645 18.5366 30.6735 18.3006 30.6735C17.9012 30.6735 17.5018 30.6463 17.1205 30.6009C14.9328 30.3649 12.9357 29.4753 11.3289 28.1318C11.2563 28.0773 11.1837 28.0138 11.1202 27.9502L11.0838 27.923L11.0112 27.8504L0 16.8573Z" fill="url(#paint2_linear_4239_74065)"/>
<path d="M10.9023 27.7776C10.9386 27.8048 10.9658 27.8321 11.0021 27.8593C11.0657 27.9138 11.1292 27.9773 11.2018 28.0227C11.3289 28.1226 11.4651 28.2133 11.6013 28.295C11.7828 28.4221 11.9825 28.522 12.1913 28.6127C12.2639 28.64 12.3275 28.6763 12.4001 28.7035C12.4636 28.7308 12.5363 28.758 12.6089 28.7761C12.6724 28.8034 12.7451 28.8215 12.8086 28.8397C12.8721 28.8578 12.9357 28.876 13.0083 28.8942C13.0174 28.8942 13.0265 28.8942 13.0355 28.9032C13.0446 28.9032 13.0446 28.9032 13.0537 28.9123C13.1172 28.9305 13.1808 28.9395 13.2534 28.9577C13.326 28.9668 13.3986 28.9849 13.4713 28.994C13.5439 29.0031 13.6074 29.0122 13.6801 29.0212C13.8344 29.0394 13.9978 29.0485 14.1612 29.0485C15.078 29.0485 15.9313 28.7943 16.6757 28.3586C16.8482 28.2587 17.0116 28.1407 17.1659 28.0227C17.3474 27.8775 17.5199 27.7231 17.6833 27.5597C17.7469 27.4871 18.1009 27.1149 18.6455 26.543C18.6455 26.543 18.6546 26.534 18.6637 26.5249C21.4506 23.5565 29.212 15.2686 29.212 15.2686L29.8202 15.8858L31.5268 17.5924L33.7054 19.7802L25.8895 27.587C24.8274 28.6309 23.5475 29.4479 22.1314 29.9835C22.1223 29.9835 22.1132 29.9835 22.1132 29.9926C21.151 30.3557 20.1252 30.5826 19.054 30.6552C19.0359 30.6552 19.0177 30.6552 18.9996 30.6552C18.7636 30.6734 18.5275 30.6825 18.2915 30.6825C17.8921 30.6825 17.4927 30.6552 17.1114 30.6098C14.9237 30.3738 12.9266 29.4842 11.3199 28.1407C11.2472 28.0862 11.1746 28.0227 11.1111 27.9592L11.0748 27.9319C11.0112 27.8865 10.9567 27.8321 10.9023 27.7776Z" fill="url(#paint3_linear_4239_74065)"/>
<path d="M61.3286 27.5738H56.7353L49.4368 19.3494V27.5738H45.5879V2.64648H49.4368V17.6428L56.3449 9.77247H61.0472L53.2131 18.4961L61.3286 27.5738ZM69.2806 28.0368C66.6663 28.0368 64.4513 27.1381 62.6176 25.3316C60.793 23.5252 59.8762 21.3102 59.8762 18.6686C59.8762 16.0361 60.793 13.812 62.6176 12.0056C64.4422 10.1991 66.6663 9.30043 69.2806 9.30043C71.9132 9.30043 74.1463 10.1991 75.9618 12.0056C77.7774 13.812 78.6851 16.027 78.6851 18.6686C78.6851 21.3011 77.7774 23.5252 75.9618 25.3316C74.1463 27.129 71.9223 28.0368 69.2806 28.0368ZM65.3319 22.69C66.403 23.7612 67.7193 24.2968 69.2806 24.2968C70.8511 24.2968 72.1674 23.7612 73.2294 22.69C74.3006 21.6188 74.8362 20.2844 74.8362 18.6686C74.8362 17.0528 74.3006 15.7093 73.2294 14.6472C72.1583 13.576 70.842 13.0404 69.2806 13.0404C67.7102 13.0404 66.3939 13.576 65.3319 14.6472C64.2607 15.7183 63.7251 17.0528 63.7251 18.6686C63.7251 20.2844 64.2607 21.6279 65.3319 22.69ZM89.9142 9.30043C91.9567 9.30043 93.6088 9.95402 94.8616 11.2612C96.1234 12.5684 96.7497 14.3567 96.7497 16.6352V27.5647H92.9008V17.0346C92.9008 15.7093 92.5468 14.6835 91.8296 13.9754C91.1216 13.2674 90.1412 12.9043 88.9066 12.9043C87.554 12.9043 86.4647 13.3218 85.6296 14.1661C84.7944 15.0103 84.3859 16.2993 84.3859 18.0332V27.5738H80.5461V9.76339H84.395V12.0419C85.5569 10.2173 87.3997 9.30043 89.9142 9.30043ZM111.047 9.76339H115.25L108.306 27.5738H103.858L96.9131 9.76339H101.116L106.1 23.2982L111.047 9.76339ZM129.429 9.76339H133.278V27.5738H129.429V25.0048C127.977 27.0201 125.907 28.0277 123.193 28.0277C120.751 28.0277 118.654 27.1199 116.929 25.3044C115.196 23.4888 114.333 21.2739 114.333 18.6595C114.333 16.027 115.196 13.803 116.929 11.9965C118.663 10.19 120.751 9.29135 123.193 9.29135C125.898 9.29135 127.977 10.2899 129.429 12.287V9.76339ZM119.78 22.7445C120.851 23.8247 122.185 24.3694 123.801 24.3694C125.417 24.3694 126.761 23.8338 127.823 22.7445C128.894 21.6642 129.429 20.3026 129.429 18.6686C129.429 17.0346 128.894 15.673 127.823 14.5927C126.751 13.5125 125.417 12.9678 123.801 12.9678C122.185 12.9678 120.842 13.5125 119.78 14.5927C118.709 15.673 118.173 17.0346 118.173 18.6686C118.173 20.3026 118.709 21.6642 119.78 22.7445ZM139.342 12.759C140.314 10.5531 142.147 9.44567 144.825 9.44567V13.6123C143.355 13.5215 142.075 13.8665 140.976 14.6653C139.887 15.4642 139.333 16.7714 139.333 18.6051V27.5829H135.484V9.76339H139.333V12.759H139.342ZM157.725 13.4671H153.304V22.0183C153.304 22.7535 153.467 23.2801 153.803 23.6069C154.139 23.9246 154.629 24.1061 155.283 24.1424C155.936 24.1787 156.744 24.1697 157.725 24.1243V27.5829C154.783 27.9369 152.668 27.6827 151.388 26.8204C150.108 25.958 149.464 24.3603 149.464 22.0273V13.4762H146.187V9.77247H149.464V5.92353L153.313 4.77974V9.76339H157.734V13.4671H157.725Z" fill="white"/>
<defs>
<linearGradient id="paint0_linear_4239_74065" x1="3.53177" y1="-13.2508" x2="37.8202" y2="15.6233" gradientUnits="userSpaceOnUse">
<stop stop-color="#021166"/>
<stop offset="1" stop-color="#10E5C6"/>
</linearGradient>
<linearGradient id="paint1_linear_4239_74065" x1="25.324" y1="-0.68394" x2="4.72884" y2="17.7561" gradientUnits="userSpaceOnUse">
<stop stop-color="#10E5C6"/>
<stop offset="1" stop-color="#7AE7DB"/>
</linearGradient>
<linearGradient id="paint2_linear_4239_74065" x1="36.0616" y1="43.952" x2="1.77319" y2="15.0778" gradientUnits="userSpaceOnUse">
<stop stop-color="#021166"/>
<stop offset="1" stop-color="#10E5C6"/>
</linearGradient>
<linearGradient id="paint3_linear_4239_74065" x1="14.2693" y1="31.3846" x2="34.8645" y2="12.9445" gradientUnits="userSpaceOnUse">
<stop stop-color="#10E5C6"/>
<stop offset="1" stop-color="#7AE7DB"/>
</linearGradient>
</defs>
</svg>
