<svg width="20" height="21" viewBox="0 0 20 21" fill="none" xmlns="http://www.w3.org/2000/svg">
<path d="M5.83331 15.6823L5.83331 14.0156" stroke="white" stroke-width="1.5" stroke-linecap="round"/>
<path d="M10 15.6826L10 13.1826" stroke="white" stroke-width="1.5" stroke-linecap="round"/>
<path d="M14.1666 15.6823L14.1666 11.5156" stroke="white" stroke-width="1.5" stroke-linecap="round"/>
<path d="M5 9.51595C4.58579 9.51595 4.25 9.85174 4.25 10.266C4.25 10.6802 4.58579 11.016 5 11.016V9.51595ZM13.9845 6.47139C14.19 6.11175 14.0651 5.65361 13.7054 5.4481C13.3458 5.24259 12.8877 5.36754 12.6822 5.72718L13.9845 6.47139ZM11.5446 5.18826C11.1359 5.25568 10.8593 5.64164 10.9267 6.05033C10.9941 6.45902 11.38 6.73568 11.7887 6.66827L11.5446 5.18826ZM12.723 5.75402L12.601 5.01402L12.723 5.75402ZM13.9015 6.42389L13.1806 6.63045L13.9015 6.42389ZM13.4457 7.55584C13.5598 7.95404 13.975 8.18436 14.3732 8.07028C14.7714 7.9562 15.0017 7.54092 14.8877 7.14272L13.4457 7.55584ZM13.5618 5.74223L13.9324 5.09021V5.09021L13.5618 5.74223ZM5 11.016C8.92417 11.016 12.1431 9.69392 13.9845 6.47139L12.6822 5.72718C11.1903 8.33798 8.57583 9.51595 5 9.51595V11.016ZM11.7887 6.66827L12.8451 6.49402L12.601 5.01402L11.5446 5.18826L11.7887 6.66827ZM13.1806 6.63045L13.4457 7.55584L14.8877 7.14272L14.6225 6.21733L13.1806 6.63045ZM12.8451 6.49402C12.9586 6.4753 13.0467 6.46081 13.1226 6.45003C13.1987 6.43923 13.2466 6.43454 13.2784 6.43309C13.3388 6.43033 13.2768 6.44292 13.1912 6.39426L13.9324 5.09021C13.6742 4.94345 13.4148 4.9253 13.21 4.93465C13.0228 4.94319 12.8049 4.98037 12.601 5.01402L12.8451 6.49402ZM14.6225 6.21733C14.573 6.0443 14.5153 5.83624 14.4382 5.6654C14.3479 5.46536 14.2008 5.24275 13.9324 5.09021L13.1912 6.39426C13.1522 6.37214 13.1176 6.34216 13.0919 6.31085C13.0696 6.28361 13.0643 6.26776 13.071 6.28253C13.0783 6.29868 13.0909 6.33095 13.1107 6.39356C13.1305 6.45607 13.1519 6.53026 13.1806 6.63045L14.6225 6.21733Z" fill="white"/>
<path d="M2.08331 10.6823C2.08331 6.95034 2.08331 5.08436 3.24268 3.92499C4.40205 2.76562 6.26803 2.76562 9.99998 2.76562C13.7319 2.76562 15.5979 2.76562 16.7573 3.92499C17.9166 5.08436 17.9166 6.95034 17.9166 10.6823C17.9166 14.4142 17.9166 16.2802 16.7573 17.4396C15.5979 18.599 13.7319 18.599 9.99998 18.599C6.26803 18.599 4.40205 18.599 3.24268 17.4396C2.08331 16.2802 2.08331 14.4142 2.08331 10.6823Z" stroke="white" stroke-width="1.5"/>
</svg>
