<svg width="25" height="60" viewBox="0 0 25 60" fill="none" xmlns="http://www.w3.org/2000/svg">
<path d="M10.7458 10.752C11.1014 8.68633 14.0677 8.68633 14.4233 10.752L19.0762 37.7734C19.2726 38.9137 18.3945 39.9559 17.2374 39.9559H7.93167C6.77462 39.9559 5.89653 38.9137 6.09287 37.7734L10.7458 10.752Z" fill="#5C5F67"/>
<path fill-rule="evenodd" clip-rule="evenodd" d="M12.1182 59.7805C18.8163 59.7805 24.2462 54.3506 24.2462 47.6525C24.2462 40.9543 18.8163 35.5244 12.1182 35.5244C5.42003 35.5244 -0.0098877 40.9543 -0.0098877 47.6525C-0.0098877 54.3506 5.42003 59.7805 12.1182 59.7805ZM12.5847 54.1829C15.9338 54.1829 18.6487 51.468 18.6487 48.1189C18.6487 44.7698 15.9338 42.0549 12.5847 42.0549C9.23564 42.0549 6.52068 44.7698 6.52068 48.1189C6.52068 51.468 9.23564 54.1829 12.5847 54.1829Z" fill="#5C5F67"/>
</svg>
