<svg width="20" height="21" viewBox="0 0 20 21" fill="none" xmlns="http://www.w3.org/2000/svg">
<path d="M7.83462 16.7347L7.64536 17.4604L7.83462 16.7347ZM6.70136 15.3609L5.98666 15.5883L6.70136 15.3609ZM6.9768 16.0869L6.3354 16.4757L6.9768 16.0869ZM13.2973 15.3609L14.0119 15.5883L13.2973 15.3609ZM13.0218 16.0869L13.6632 16.4757L13.0218 16.0869ZM12.164 16.7347L12.3532 17.4604L12.164 16.7347ZM13.1196 14.5722L13.4017 13.8773L13.1196 14.5722ZM13.3919 14.9679L14.1411 14.9337L13.3919 14.9679ZM6.879 14.5722L6.59691 13.8773L6.879 14.5722ZM6.60675 14.9679L5.85753 14.9337L6.60675 14.9679ZM12.8787 16.92C12.9567 16.5132 12.6901 16.1202 12.2832 16.0422C11.8764 15.9643 11.4835 16.2309 11.4055 16.6377L12.8787 16.92ZM12.0497 17.261L11.3131 17.1198L11.3131 17.1198L12.0497 17.261ZM7.94878 17.261L8.68538 17.1198V17.1198L7.94878 17.261ZM8.59301 16.6377C8.51506 16.2309 8.12209 15.9643 7.71527 16.0422C7.30846 16.1202 7.04186 16.5132 7.1198 16.92L8.59301 16.6377ZM9.00882 18.9407L8.76476 19.6499L9.00882 18.9407ZM8.21346 18.26L7.55443 18.6181L8.21346 18.26ZM11.7851 18.26L12.4441 18.6181L12.4441 18.6181L11.7851 18.26ZM10.9897 18.9407L11.2338 19.6499L10.9897 18.9407ZM7.26471 15.292H12.7339V13.792H7.26471V15.292ZM11.4194 16.0288H8.57921V17.5288H11.4194V16.0288ZM8.57921 16.0288C8.15315 16.0288 8.07762 16.023 8.02388 16.0089L7.64536 17.4604C7.93027 17.5347 8.23825 17.5288 8.57921 17.5288V16.0288ZM5.98666 15.5883C6.0958 15.9313 6.18437 16.2264 6.3354 16.4757L7.6182 15.6982C7.58217 15.6388 7.54946 15.5528 7.41605 15.1335L5.98666 15.5883ZM8.02388 16.0089C7.86444 15.9674 7.71652 15.8604 7.6182 15.6982L6.3354 16.4757C6.62896 16.96 7.09535 17.317 7.64536 17.4604L8.02388 16.0089ZM12.5826 15.1335C12.4491 15.5528 12.4164 15.6388 12.3804 15.6982L13.6632 16.4757C13.8142 16.2264 13.9028 15.9313 14.0119 15.5883L12.5826 15.1335ZM11.4194 17.5288C11.7604 17.5288 12.0683 17.5347 12.3532 17.4604L11.9747 16.0089C11.921 16.023 11.8455 16.0288 11.4194 16.0288V17.5288ZM12.3804 15.6982C12.2821 15.8604 12.1342 15.9674 11.9747 16.0089L12.3532 17.4604C12.9033 17.317 13.3696 16.96 13.6632 16.4757L12.3804 15.6982ZM12.7339 15.292C12.7871 15.292 12.8277 15.292 12.8624 15.2924C12.8972 15.2928 12.9179 15.2936 12.9304 15.2943C12.9431 15.2951 12.9383 15.2954 12.9233 15.2927C12.9068 15.2897 12.876 15.2827 12.8375 15.2671L13.4017 13.8773C13.2534 13.8171 13.1142 13.8028 13.0229 13.7972C12.9332 13.7917 12.8281 13.792 12.7339 13.792V15.292ZM14.0119 15.5883C14.0421 15.4934 14.0746 15.3924 14.097 15.305C14.1198 15.2163 14.148 15.0854 14.1411 14.9337L12.6426 15.0022C12.641 14.9665 12.6439 14.9403 12.6456 14.9282C12.6472 14.9175 12.648 14.9167 12.6442 14.9318C12.6403 14.9467 12.634 14.9692 12.6231 15.0046C12.6123 15.0399 12.5993 15.0808 12.5826 15.1335L14.0119 15.5883ZM12.8375 15.2671C12.7096 15.2152 12.6472 15.1027 12.6426 15.0022L14.1411 14.9337C14.1203 14.4798 13.8445 14.057 13.4017 13.8773L12.8375 15.2671ZM7.26471 13.792C7.17048 13.792 7.06545 13.7917 6.97574 13.7972C6.88437 13.8028 6.74525 13.8171 6.59691 13.8773L7.16109 15.2671C7.12265 15.2827 7.09179 15.2897 7.07529 15.2927C7.06031 15.2954 7.05548 15.2951 7.06817 15.2943C7.08073 15.2936 7.10136 15.2928 7.1362 15.2924C7.17095 15.292 7.21154 15.292 7.26471 15.292V13.792ZM7.41605 15.1335C7.39929 15.0808 7.38628 15.0399 7.37547 15.0046C7.36463 14.9692 7.35827 14.9467 7.35442 14.9318C7.35056 14.9167 7.35141 14.9175 7.35296 14.9282C7.35471 14.9403 7.3576 14.9665 7.35596 15.0022L5.85753 14.9337C5.85059 15.0854 5.8788 15.2163 5.90159 15.305C5.92405 15.3924 5.95649 15.4934 5.98666 15.5883L7.41605 15.1335ZM6.59691 13.8773C6.15413 14.057 5.87829 14.4798 5.85753 14.9337L7.35596 15.0022C7.35137 15.1026 7.28896 15.2152 7.16109 15.2671L6.59691 13.8773ZM11.4055 16.6377L11.3131 17.1198L12.7863 17.4021L12.8787 16.92L11.4055 16.6377ZM8.68538 17.1198L8.59301 16.6377L7.1198 16.92L7.21218 17.4021L8.68538 17.1198ZM9.99926 18.2657C9.42646 18.2657 9.32307 18.2557 9.25289 18.2315L8.76476 19.6499C9.13034 19.7757 9.54199 19.7657 9.99926 19.7657V18.2657ZM7.21218 17.4021C7.30294 17.8758 7.37188 18.2821 7.55443 18.6181L8.87249 17.902C8.82869 17.8214 8.79663 17.7005 8.68538 17.1198L7.21218 17.4021ZM9.25289 18.2315C9.09894 18.1785 8.96077 18.0645 8.87249 17.902L7.55443 18.6181C7.81609 19.0997 8.24494 19.471 8.76476 19.6499L9.25289 18.2315ZM11.3131 17.1198C11.2019 17.7005 11.1698 17.8214 11.126 17.902L12.4441 18.6181C12.6266 18.2821 12.6956 17.8758 12.7863 17.4021L11.3131 17.1198ZM9.99926 19.7657C10.4565 19.7657 10.8682 19.7757 11.2338 19.6499L10.7456 18.2315C10.6755 18.2557 10.5721 18.2657 9.99926 18.2657V19.7657ZM11.126 17.902C11.0378 18.0645 10.8996 18.1785 10.7456 18.2315L11.2338 19.6499C11.7536 19.471 12.1824 19.0997 12.4441 18.6181L11.126 17.902Z" fill="white"/>
<path d="M5.07452 13.1833C4.75918 12.4744 4.58337 11.6858 4.58337 10.8548C4.58337 7.76854 7.0085 5.2666 10 5.2666C12.9916 5.2666 15.4167 7.76854 15.4167 10.8548C15.4167 11.6858 15.2409 12.4744 14.9256 13.1833" stroke="white" stroke-width="1.5" stroke-linecap="round"/>
<path d="M10 2.34961V3.18294" stroke="white" stroke-width="1.5" stroke-linecap="round" stroke-linejoin="round"/>
<path d="M18.3334 10.6826L17.5 10.6826" stroke="white" stroke-width="1.5" stroke-linecap="round" stroke-linejoin="round"/>
<path d="M2.5 10.6826L1.66667 10.6826" stroke="white" stroke-width="1.5" stroke-linecap="round" stroke-linejoin="round"/>
<path d="M15.892 4.79004L15.3027 5.37929" stroke="white" stroke-width="1.5" stroke-linecap="round" stroke-linejoin="round"/>
<path d="M4.69727 5.37988L4.10801 4.79063" stroke="white" stroke-width="1.5" stroke-linecap="round" stroke-linejoin="round"/>
</svg>
