<svg width="24" height="25" viewBox="0 0 24 25" fill="none" xmlns="http://www.w3.org/2000/svg">
<path d="M20.75 7.68262V17.6826C20.75 20.3016 18.619 22.4326 16 22.4326H12C11.586 22.4326 11.25 22.0966 11.25 21.6826C11.25 21.2686 11.586 20.9326 12 20.9326H16C17.792 20.9326 19.25 19.4746 19.25 17.6826V7.68262C19.25 5.89062 17.792 4.43262 16 4.43262H12C11.586 4.43262 11.25 4.09662 11.25 3.68262C11.25 3.26862 11.586 2.93262 12 2.93262H16C18.619 2.93262 20.75 5.06362 20.75 7.68262ZM14.53 12.1526L10.53 8.15259C10.237 7.85959 9.76199 7.85959 9.46899 8.15259C9.17599 8.44559 9.17599 8.92062 9.46899 9.21362L12.189 11.9336H4C3.586 11.9336 3.25 12.2696 3.25 12.6836C3.25 13.0976 3.586 13.4336 4 13.4336H12.189L9.46899 16.1536C9.17599 16.4466 9.17599 16.9216 9.46899 17.2146C9.61499 17.3606 9.80699 17.4346 9.99899 17.4346C10.191 17.4346 10.383 17.3616 10.529 17.2146L14.529 13.2146C14.823 12.9196 14.823 12.4456 14.53 12.1526Z" fill="white"/>
</svg>
