<svg width="36" height="36" viewBox="0 0 36 36" fill="none" xmlns="http://www.w3.org/2000/svg">
<path d="M18.0001 7.99609C22.05 7.99609 25.3568 11.1908 25.4959 15.2452L25.5001 15.4961V19.5931L26.8801 22.7491C26.9492 22.907 26.9848 23.0775 26.9848 23.2499C26.9848 23.9402 26.4252 24.4999 25.7348 24.4999L21.0001 24.5014C21.0001 26.1582 19.657 27.5014 18.0001 27.5014C16.4024 27.5014 15.0965 26.2524 15.0052 24.6776L14.9997 24.4991L10.275 24.4999C10.1036 24.4999 9.93413 24.4646 9.77697 24.3964C9.14377 24.1213 8.85342 23.3851 9.12846 22.7519L10.5001 19.594V15.496C10.5007 11.3412 13.8522 7.99609 18.0001 7.99609ZM19.4997 24.4991L16.5001 24.5014C16.5001 25.3298 17.1717 26.0014 18.0001 26.0014C18.7798 26.0014 19.4206 25.4065 19.4932 24.6458L19.4997 24.4991ZM18.0001 9.49609C14.68 9.49609 12.0006 12.1704 12.0001 15.4961V19.9057L10.6561 22.9999H25.3526L24.0001 19.9067L24.0002 15.509L23.9965 15.2838C23.8854 12.0503 21.2417 9.49609 18.0001 9.49609Z" fill="#001366"/>
<circle cx="30.5" cy="9.5" r="3.5" fill="#FB373B"/>
</svg>
