<svg width="20" height="21" viewBox="0 0 20 21" fill="none" xmlns="http://www.w3.org/2000/svg">
<path d="M14.5833 15.2666L18.3333 19.0166" stroke="white" stroke-width="1.5" stroke-linecap="round" stroke-linejoin="round"/>
<path d="M16.6666 9.84961C16.6666 5.70747 13.3088 2.34961 9.16663 2.34961C5.02449 2.34961 1.66663 5.70747 1.66663 9.84961C1.66663 13.9917 5.02449 17.3496 9.16663 17.3496C13.3088 17.3496 16.6666 13.9917 16.6666 9.84961Z" stroke="white" stroke-width="1.5" stroke-linejoin="round"/>
<path d="M7.91034 6.93262C7.31325 6.9688 6.93327 7.06833 6.65949 7.34211C6.38571 7.61589 6.28618 7.99587 6.25 8.59295M10.423 6.93262C11.0201 6.9688 11.4001 7.06833 11.6738 7.34211C11.9476 7.61589 12.0471 7.99587 12.0833 8.59295M12.0769 11.2004C12.0359 11.7434 11.9328 12.0975 11.6738 12.3565C11.4001 12.6302 11.0201 12.7298 10.423 12.766M7.91033 12.766C7.31325 12.7298 6.93327 12.6302 6.65949 12.3565C6.4005 12.0975 6.29744 11.7434 6.25643 11.2004" stroke="white" stroke-width="1.5" stroke-linecap="round" stroke-linejoin="round"/>
</svg>
