<svg width="20" height="21" viewBox="0 0 20 21" fill="none" xmlns="http://www.w3.org/2000/svg">
<path d="M17.803 18.7129C18.0959 19.0058 18.5708 19.0058 18.8637 18.7129C19.1566 18.4201 19.1566 17.9452 18.8637 17.6523L17.803 18.7129ZM15.803 16.7129L17.803 18.7129L18.8637 17.6523L16.8637 15.6523L15.803 16.7129ZM18.0834 12.6826C18.0834 9.78312 15.7329 7.43262 12.8334 7.43262V8.93262C14.9044 8.93262 16.5834 10.6115 16.5834 12.6826H18.0834ZM12.8334 7.43262C9.93388 7.43262 7.58337 9.78312 7.58337 12.6826H9.08337C9.08337 10.6115 10.7623 8.93262 12.8334 8.93262V7.43262ZM7.58337 12.6826C7.58337 15.5821 9.93388 17.9326 12.8334 17.9326V16.4326C10.7623 16.4326 9.08337 14.7537 9.08337 12.6826H7.58337ZM12.8334 17.9326C15.7329 17.9326 18.0834 15.5821 18.0834 12.6826H16.5834C16.5834 14.7537 14.9044 16.4326 12.8334 16.4326V17.9326Z" fill="white"/>
<path d="M1.66669 9.01562L5.83335 9.01566" stroke="white" stroke-width="1.5" stroke-linecap="round" stroke-linejoin="round"/>
<path d="M1.66669 14.8496H5.83335" stroke="white" stroke-width="1.5" stroke-linecap="round" stroke-linejoin="round"/>
<path d="M1.66669 3.18262H15.8334" stroke="white" stroke-width="1.5" stroke-linecap="round" stroke-linejoin="round"/>
</svg>
