<svg width="20" height="21" viewBox="0 0 20 21" fill="none" xmlns="http://www.w3.org/2000/svg">
<path d="M2.0835 10.6833C2.0835 6.95132 2.0835 5.08534 3.24287 3.92597C4.40223 2.7666 6.26821 2.7666 10.0002 2.7666C13.7321 2.7666 15.5981 2.7666 16.7575 3.92597C17.9168 5.08534 17.9168 6.95132 17.9168 10.6833C17.9168 14.4152 17.9168 16.2812 16.7575 17.4406C15.5981 18.5999 13.7321 18.5999 10.0002 18.5999C6.26821 18.5999 4.40223 18.5999 3.24287 17.4406C2.0835 16.2812 2.0835 14.4152 2.0835 10.6833Z" stroke="white" stroke-width="1.5" stroke-linejoin="round"/>
<path d="M15.8314 10.7531C15.8026 11.1935 15.4102 11.5271 14.6254 12.1943C13.3981 13.2377 12.7844 13.7594 12.2796 13.5569C12.2281 13.5362 12.1785 13.5109 12.1312 13.4811C11.7708 13.2541 11.6902 12.6999 11.6722 11.6818H8.32847C8.31044 12.6999 8.22985 13.2541 7.86945 13.4811C7.82215 13.5109 7.7725 13.5362 7.72107 13.5569C7.21623 13.7594 6.60258 13.2377 5.3753 12.1943C4.5905 11.5271 4.1981 11.1935 4.16928 10.7531C4.16623 10.7066 4.16623 10.6599 4.16928 10.6134C4.1981 10.1731 4.5905 9.83944 5.3753 9.17222C6.60258 8.12881 7.21623 7.6071 7.72107 7.80966C7.7725 7.8303 7.82215 7.85566 7.86945 7.88545C8.21954 8.10597 8.3056 8.63517 8.32676 9.59847H11.6739C11.695 8.63517 11.7811 8.10597 12.1312 7.88545C12.1785 7.85566 12.2281 7.8303 12.2796 7.80966C12.7844 7.6071 13.3981 8.12881 14.6254 9.17222C15.4102 9.83944 15.8026 10.1731 15.8314 10.6134C15.8344 10.6599 15.8344 10.7066 15.8314 10.7531Z" stroke="white" stroke-width="1.5" stroke-linecap="round" stroke-linejoin="round"/>
</svg>
